<svg xmlns="http://www.w3.org/2000/svg" xmlns:xlink="http://www.w3.org/1999/xlink" version="1.1" x="0px" y="0px" viewBox="20 20 60 60" enable-background="new 0 0 100 100" xml:space="preserve"><path fill="#907fd5" d="M78.786,27.701l-6.487-6.489c-0.088-0.086-0.19-0.153-0.308-0.201c-0.114-0.048-0.234-0.073-0.357-0.073  H26.202c-2.902,0-5.265,2.362-5.265,5.265v47.596c0,2.902,2.362,5.265,5.265,5.265h47.596c2.902,0,5.265-2.362,5.265-5.265V28.364  c0-0.121-0.025-0.243-0.071-0.358C78.943,27.892,78.874,27.787,78.786,27.701z M66.369,38.244H44.446V22.812h21.923V38.244z   M33.631,38.244V22.812h8.94v15.432H33.631z M29.304,46.61h41.393v30.577H29.304V46.61z M73.798,77.188h-1.227V45.673  c0-0.518-0.419-0.938-0.938-0.938H28.366c-0.519,0-0.938,0.42-0.938,0.938v31.515h-1.227c-1.87,0-3.39-1.52-3.39-3.39V26.202  c0-1.87,1.52-3.39,3.39-3.39h5.554v16.369c0,0.519,0.419,0.938,0.938,0.938h34.613c0.519,0,0.938-0.419,0.938-0.938V22.812h3.002  l5.941,5.939v45.046C77.188,75.668,75.668,77.188,73.798,77.188z"/><path fill="#907fd5" d="M56.491,35.793h6.489c0.518,0,0.938-0.42,0.938-0.938v-8.653c0-0.519-0.42-0.938-0.938-0.938h-6.489  c-0.519,0-0.938,0.419-0.938,0.938v8.653C55.554,35.373,55.973,35.793,56.491,35.793z M57.429,33.918V27.14h4.614v6.778H57.429z"/><path fill="#907fd5" d="M57.5,65.938h-15c-0.519,0-0.938,0.419-0.938,0.938s0.419,0.938,0.938,0.938h8.438v2.812  c0,2.067,1.681,3.75,3.75,3.75s3.75-1.683,3.75-3.75v-3.75C58.438,66.356,58.019,65.938,57.5,65.938z M54.688,72.5  c-1.033,0-1.875-0.841-1.875-1.875v-2.812h3.75v2.812C56.562,71.659,55.721,72.5,54.688,72.5z"/><path fill="#907fd5" d="M41.837,61.913c0.184,0.183,0.423,0.274,0.663,0.274s0.479-0.092,0.663-0.274  c0.366-0.366,0.366-0.96,0-1.326l-1.212-1.212l1.212-1.212c0.366-0.366,0.366-0.96,0-1.326s-0.96-0.366-1.326,0l-1.212,1.212  l-1.212-1.212c-0.366-0.366-0.96-0.366-1.326,0s-0.366,0.96,0,1.326l1.212,1.212l-1.212,1.212c-0.366,0.366-0.366,0.96,0,1.326  c0.184,0.183,0.423,0.274,0.663,0.274s0.479-0.092,0.663-0.274l1.212-1.212L41.837,61.913z"/><path fill="#907fd5" d="M60.701,59.375l1.212-1.212c0.366-0.366,0.366-0.96,0-1.326s-0.96-0.366-1.326,0l-1.212,1.212l-1.212-1.212  c-0.366-0.366-0.96-0.366-1.326,0s-0.366,0.96,0,1.326l1.212,1.212l-1.212,1.212c-0.366,0.366-0.366,0.96,0,1.326  c0.184,0.183,0.423,0.274,0.663,0.274s0.479-0.092,0.663-0.274l1.212-1.212l1.212,1.212c0.184,0.183,0.423,0.274,0.663,0.274  s0.479-0.092,0.663-0.274c0.366-0.366,0.366-0.96,0-1.326L60.701,59.375z"/></svg>